<svg width="512" height="80" viewBox="0 0 512 80" fill="none" xmlns="http://www.w3.org/2000/svg">
<path d="M112.906 0.0556106C113.206 0.0319571 113.505 0.104727 113.76 0.263295C113.963 0.462269 114.127 0.69698 114.245 0.955613L131.391 38.0865C131.438 38.2365 131.534 38.3661 131.664 38.4542C131.794 38.5422 131.95 38.5835 132.107 38.5712H132.383C132.528 38.5682 132.669 38.5198 132.785 38.4328C132.9 38.3459 132.986 38.2248 133.03 38.0865L150.014 0.955613C150.11 0.676457 150.296 0.436844 150.542 0.27407C150.788 0.111297 151.081 0.0344945 151.376 0.0556106H159.037C159.499 0.0556106 159.799 0.217143 159.891 0.517144C159.977 0.901163 159.919 1.30326 159.73 1.64793L140.53 43.1866C139.919 44.7918 138.938 46.2307 137.668 47.3866C136.719 48.082 135.568 48.4468 134.391 48.425H130.93C129.591 48.4781 128.269 48.1153 127.145 47.3866C125.834 46.2469 124.821 44.8054 124.191 43.1866L104.76 1.64793C104.586 1.29797 104.537 0.898806 104.622 0.517144C104.622 0.217143 105.014 0.0556106 105.522 0.0556106H112.906Z" fill="#003974"/>
<path d="M172.191 0.0557251C173.045 0.0557251 173.484 0.56341 173.484 1.5788V29.1097C173.452 30.6566 173.576 32.2029 173.853 33.7251C174.04 34.781 174.475 35.7775 175.122 36.6328C175.723 37.359 176.526 37.8893 177.43 38.1559C178.656 38.4815 179.923 38.6291 181.192 38.5943H204.915C205.769 38.5943 206.184 39.102 206.184 40.1174V46.879C206.184 47.8944 205.769 48.4021 204.915 48.4021H180.915C178.365 48.4578 175.821 48.1311 173.368 47.4329C171.422 46.8688 169.666 45.7835 168.291 44.2944C166.903 42.6635 165.922 40.7255 165.43 38.6405C164.78 35.8656 164.478 33.0207 164.53 30.1712V1.5788C164.53 0.56341 164.968 0.0557251 165.868 0.0557251H172.191Z" fill="#003974"/>
<path d="M252.222 0.0556326C253.076 0.0556326 253.491 0.563318 253.491 1.57871V8.13259C253.491 9.14798 253.076 9.65566 252.222 9.65566H222.891C222.451 9.62502 222.009 9.70382 221.607 9.88501C221.204 10.0662 220.853 10.3442 220.583 10.6941C220.07 11.549 219.821 12.5366 219.868 13.5326V15.8403C219.868 18.4249 220.883 19.7172 222.914 19.7172H244.884C246.31 19.6151 247.74 19.8383 249.068 20.37C250.395 20.9017 251.584 21.728 252.545 22.7865C254.408 25.324 255.315 28.4378 255.107 31.5788V37.0942C255.25 40.0207 254.36 42.9043 252.591 45.2404C251.614 46.3317 250.396 47.1811 249.035 47.7217C247.673 48.2623 246.205 48.4794 244.745 48.3558H212.322C211.422 48.3558 210.983 47.8481 210.983 46.8327V40.2789C210.983 39.2635 211.422 38.7558 212.322 38.7558H243.06C243.501 38.7864 243.942 38.7077 244.345 38.5265C244.747 38.3453 245.099 38.0673 245.368 37.7173C245.87 36.8671 246.111 35.888 246.06 34.9019V32.0635C246.06 29.4788 245.045 28.2096 243.014 28.2096H221.068C219.64 28.3106 218.208 28.0846 216.88 27.5487C215.552 27.0129 214.364 26.1813 213.406 25.1173C211.523 22.5892 210.606 19.4703 210.822 16.3249V11.3172C210.69 8.39227 211.579 5.51253 213.337 3.17103C214.317 2.08259 215.535 1.23514 216.896 0.694744C218.257 0.154352 219.724 -0.0643709 221.183 0.0556326H252.222Z" fill="#003974"/>
<path d="M269.369 0.0557251C270.223 0.0557251 270.661 0.56341 270.661 1.5788V46.8559C270.661 47.8713 270.223 48.379 269.369 48.379H263.092C262.192 48.379 261.73 47.8713 261.73 46.8559V1.5788C261.73 0.56341 262.192 0.0557251 263.092 0.0557251H269.369Z" fill="#003974"/>
<path d="M339.73 0.0556079C340.63 0.0556079 341.069 0.563293 341.069 1.57868V8.13257C341.069 9.14795 340.63 9.65564 339.73 9.65564H314.346C313.07 9.62089 311.795 9.76854 310.561 10.0941C309.654 10.354 308.849 10.8856 308.253 11.6172C307.597 12.4669 307.161 13.4658 306.984 14.5249C306.704 16.0468 306.581 17.5933 306.615 19.1403V20.5249H339.5C340.353 20.5249 340.792 21.0326 340.792 22.0249V27.4942C340.792 28.5096 340.353 28.9942 339.5 28.9942H306.546V46.9481C306.546 47.9635 306.107 48.4712 305.253 48.4712H298.93C298.03 48.4712 297.569 47.9635 297.569 46.9481V18.2865C297.51 15.4506 297.82 12.6191 298.492 9.86334C298.973 7.78154 299.956 5.84869 301.353 4.23254C302.728 2.74909 304.472 1.65794 306.407 1.071C308.863 0.344239 311.416 0.0017198 313.976 0.0556079H339.73Z" fill="#003974"/>
<path d="M354.522 0.0557251C355.399 0.0557251 355.815 0.56341 355.815 1.5788V46.8559C355.815 47.8713 355.399 48.379 354.522 48.379H348.199C347.322 48.379 346.861 47.8713 346.861 46.8559V1.5788C346.861 0.56341 347.322 0.0557251 348.199 0.0557251H354.522Z" fill="#003974"/>
<path d="M396.8 0.0556106C398.576 -0.117973 400.368 0.116082 402.039 0.739953C403.711 1.36382 405.218 2.36104 406.446 3.65562C408.617 6.75079 409.652 10.5006 409.377 14.271V18.2172C409.545 21.4754 408.836 24.719 407.323 27.6096C406.593 28.7803 405.62 29.78 404.469 30.5407C403.318 31.3013 402.017 31.8049 400.654 32.0173L410.785 46.6943C410.885 46.8453 410.954 47.0155 410.986 47.1942C411.017 47.3729 411.012 47.5563 410.969 47.7327C410.935 47.9498 410.816 48.1445 410.639 48.2743C410.462 48.404 410.24 48.4582 410.023 48.425H402.477C402.111 48.4554 401.743 48.3835 401.415 48.2174C401.179 48.0267 400.983 47.7915 400.838 47.525L391.608 33.1711H372.708V46.902C372.708 47.9173 372.269 48.425 371.415 48.425H365.092C364.192 48.425 363.754 47.9173 363.754 46.902V2.13255C363.754 0.747925 364.331 0.0556106 365.508 0.0556106H396.8ZM372.569 24.7019H394.977C395.75 24.7818 396.531 24.6864 397.262 24.4227C397.994 24.159 398.656 23.7338 399.2 23.1788C400.114 21.8212 400.545 20.1955 400.423 18.5634V15.6557C400.545 14.0236 400.114 12.3979 399.2 11.0403C398.656 10.4852 397.994 10.0601 397.262 9.79635C396.531 9.53265 395.75 9.43723 394.977 9.51719H373.331C372.823 9.51719 372.569 9.79411 372.569 10.348V24.7019Z" fill="#003974"/>
<path d="M456.616 0.0556326C457.469 0.0556326 457.908 0.563318 457.908 1.57871V8.13259C457.908 9.14798 457.469 9.65566 456.616 9.65566H427.285C426.844 9.62706 426.404 9.70677 426.002 9.8878C425.599 10.0688 425.247 10.3457 424.977 10.6941C424.472 11.5515 424.231 12.5389 424.285 13.5326V15.8403C424.285 18.4249 425.3 19.7172 427.331 19.7172H449.277C450.703 19.6117 452.135 19.8333 453.463 20.3652C454.791 20.8971 455.98 21.7253 456.939 22.7865C458.819 25.3164 459.735 28.4339 459.523 31.5788V37.0942C459.655 40.0192 458.766 42.8989 457.008 45.2404C456.028 46.3289 454.81 47.1763 453.449 47.7167C452.088 48.2571 450.621 48.4758 449.162 48.3558H416.646C415.746 48.3558 415.285 47.8481 415.285 46.8327V40.2789C415.285 39.2635 415.746 38.7558 416.646 38.7558H447.362C447.802 38.7864 448.243 38.7077 448.646 38.5265C449.049 38.3453 449.4 38.0673 449.669 37.7173C450.19 36.8741 450.44 35.8915 450.385 34.9019V32.0635C450.385 29.4788 449.369 28.2096 447.339 28.2096H425.392C423.961 28.309 422.526 28.0823 421.195 27.5467C419.863 27.0111 418.671 26.1804 417.708 25.1173C415.841 22.5815 414.934 19.4664 415.146 16.3249V11.3172C415.016 8.38514 415.923 5.50092 417.708 3.17103C418.687 2.08259 419.905 1.23514 421.266 0.694744C422.627 0.154352 424.094 -0.0643709 425.554 0.0556326H456.616Z" fill="#003974"/>
<path d="M510.639 0.0557251C511.539 0.0557251 512 0.56341 512 1.5788V8.34037C512 9.40191 511.539 9.93269 510.639 9.93269H492.177V46.8559C492.177 47.8713 491.738 48.379 490.885 48.379H484.631C483.754 48.379 483.338 47.8713 483.338 46.8559V9.93269H464.877C463.977 9.93269 463.538 9.40191 463.538 8.34037V1.5788C463.538 0.56341 463.977 0.0557251 464.877 0.0557251H510.639Z" fill="#003974"/>
<path d="M64.5604 14.8942L74.7605 0.471039H98.8529L88.5605 14.8942H64.5604Z" fill="#003974"/>
<path d="M50.8517 35.3173L58.9979 23.8019H78.2441L70.0287 35.3173H50.8517Z" fill="#003974"/>
<path d="M47.2527 0.540314L43.0757 7.02495L41.5757 9.33265V9.47113L39.6834 12.0788L21.2218 39.2405C21.6953 40.443 21.7711 41.7655 21.438 43.0142C21.1049 44.2629 20.3805 45.372 19.3709 46.1789C18.3614 46.9858 17.1199 47.4479 15.8285 47.4976C14.537 47.5472 13.2637 47.1818 12.1952 46.4549C11.1267 45.7279 10.3192 44.6777 9.89116 43.4583C9.46315 42.2388 9.43713 40.9143 9.81692 39.679C10.1967 38.4437 10.9623 37.3627 12.0015 36.5943C13.0406 35.826 14.2987 35.4108 15.591 35.4097H16.1679L31.6988 12.3327L7.35252 11.548C6.26193 11.5209 5.20231 11.9123 4.39121 12.6418C3.58012 13.3714 3.07908 14.3838 2.99097 15.4711L0.0140288 58.2329C-0.0312614 58.7542 0.0333968 59.2792 0.203821 59.774C0.374245 60.2687 0.64664 60.7222 1.00338 61.105C1.36012 61.4879 1.79325 61.7916 2.27477 61.9965C2.75628 62.2013 3.27544 62.3028 3.79866 62.2944H24.7988C26.0441 62.2266 27.2601 61.8904 28.3634 61.3089C29.4667 60.7274 30.4313 59.9142 31.1911 58.9252L71.3682 0.540314H47.2527Z" fill="#ED1C24"/>
<path d="M122.599 67.279C123.666 67.0977 124.747 67.005 125.83 67.0021C126.752 66.9352 127.679 67.0539 128.555 67.3512C129.431 67.6484 130.238 68.1183 130.93 68.7328C131.469 69.3229 131.886 70.0145 132.155 70.7673C132.425 71.5201 132.541 72.319 132.499 73.1175C132.566 74.8652 131.982 76.5756 130.86 77.9175C130.131 78.6 129.269 79.1245 128.328 79.4581C127.387 79.7916 126.387 79.9271 125.391 79.8559C124.459 79.865 123.527 79.8265 122.599 79.7406V67.279ZM123.499 79.0021C124.175 79.0433 124.853 79.0433 125.53 79.0021C126.327 79.0937 127.134 79.0072 127.894 78.7488C128.654 78.4905 129.347 78.0669 129.923 77.5083C130.499 76.9498 130.944 76.2704 131.226 75.5191C131.508 74.7678 131.619 73.9633 131.553 73.1636C131.553 69.9559 129.799 67.7636 125.737 67.7636C124.964 67.7589 124.192 67.8207 123.43 67.9482L123.499 79.0021Z" fill="#231F20"/>
<path d="M146.691 73.4636H141.637V79.0021H147.291V79.7406H140.783V67.0944H147.037V67.8559H141.637V72.7021H146.691V73.4636Z" fill="#231F20"/>
<path d="M155.484 67.0944H156.384V79.0021H162.015V79.7406H155.484V67.0944Z" fill="#231F20"/>
<path d="M170.783 67.0944V79.7406H169.883V67.0944H170.783Z" fill="#231F20"/>
<path d="M182.53 79.7406L178.33 67.0944H179.253L181.56 73.879C182.16 75.7021 182.691 77.3175 183.06 78.7252C183.43 77.2944 184.007 75.6559 184.653 73.879L187.122 67.0944H188.068L183.453 79.7406H182.53Z" fill="#231F20"/>
<path d="M201.36 73.4636H196.284V79.0021H201.96V79.7406H195.407V67.0944H201.66V67.8559H196.284V72.7021H201.36V73.4636Z" fill="#231F20"/>
<path d="M210.153 67.2789C211.048 67.0896 211.961 66.9968 212.876 67.002C213.487 66.9428 214.104 67.0062 214.691 67.1885C215.277 67.3708 215.821 67.6683 216.291 68.0636C216.873 68.6891 217.188 69.5171 217.168 70.3713C217.179 71.1201 216.939 71.851 216.488 72.4486C216.037 73.0462 215.399 73.4764 214.676 73.6713C215.219 73.898 215.69 74.2699 216.036 74.7461C216.382 75.2223 216.59 75.7846 216.638 76.3713C216.835 77.5316 217.152 78.6685 217.584 79.7636H216.661C216.284 78.772 216.013 77.7431 215.853 76.6944C215.461 74.8713 214.676 74.0405 213.015 73.9713H211.03V79.7636H210.153V67.2789ZM211.03 73.2328H213.038C213.436 73.2885 213.842 73.2588 214.228 73.1457C214.614 73.0325 214.972 72.8386 215.277 72.5767C215.583 72.3149 215.829 71.991 216 71.6267C216.171 71.2624 216.262 70.8659 216.268 70.4636C216.268 68.5251 214.838 67.7405 212.853 67.7405C212.241 67.7338 211.631 67.7879 211.03 67.902V73.2328Z" fill="#231F20"/>
<path d="M226.514 67.0944V79.7406H225.614V67.0944H226.514Z" fill="#231F20"/>
<path d="M235.584 79.7406V67.0944H236.438L241.353 74.5713C242.202 75.8542 242.973 77.1874 243.661 78.5636C243.522 76.8559 243.522 75.4021 243.522 73.4175V67.1174H244.376V79.7637H243.545L238.722 72.4021C237.823 71.0928 237.006 69.7286 236.276 68.3175C236.276 69.8867 236.415 71.2482 236.415 73.3482V79.7406H235.584Z" fill="#231F20"/>
<path d="M262.629 79.1867C261.453 79.6457 260.2 79.8805 258.937 79.8791C258.118 79.9139 257.3 79.7849 256.531 79.4996C255.762 79.2143 255.058 78.7784 254.46 78.2175C253.279 76.923 252.657 75.2145 252.729 73.4636C252.689 72.5913 252.832 71.7203 253.151 70.9073C253.47 70.0944 253.957 69.3578 254.58 68.7458C255.203 68.1338 255.948 67.6601 256.766 67.3557C257.584 67.0512 258.458 66.9229 259.329 66.979C260.341 66.9656 261.345 67.1538 262.283 67.5328L261.983 68.2713C261.134 67.8961 260.211 67.7148 259.283 67.7405C258.526 67.6886 257.767 67.8002 257.057 68.0678C256.348 68.3354 255.704 68.7527 255.169 69.2913C254.635 69.8298 254.223 70.4771 253.962 71.1891C253.7 71.9011 253.594 72.6611 253.652 73.4175C253.57 74.1643 253.652 74.9201 253.893 75.6318C254.134 76.3435 254.528 76.9938 255.047 77.5371C255.566 78.0803 256.197 78.5033 256.897 78.7764C257.597 79.0494 258.349 79.1659 259.099 79.1175C259.997 79.1644 260.895 79.0148 261.729 78.679V74.2252H258.799V73.4867H262.629V79.1867Z" fill="#231F20"/>
<path d="M288.107 67.8559H283.976V67.0944H293.207V67.8559H289.076V79.7406H288.199L288.107 67.8559Z" fill="#231F20"/>
<path d="M301.331 67.0944V72.6559H308.254V67.0944H309.246V79.7406H308.346V73.4175H301.423V79.7406H300.523V67.0944H301.331Z" fill="#231F20"/>
<path d="M324.199 73.4636H319.145V79.0021H324.799V79.7406H318.245V67.0944H324.499V67.8559H319.145V72.7021H324.199V73.4636Z" fill="#231F20"/>
<path d="M353.391 73.4636H348.338V79.0021H353.991V79.7406H347.438V67.0944H353.691V67.8559H348.338V72.7021H353.391V73.4636Z" fill="#231F20"/>
<path d="M369.246 79.7406L367.33 76.6483C366.546 75.4713 366.084 74.7329 365.669 74.0175C365.254 74.7559 364.861 75.4252 364.077 76.6713L362.254 79.7406H361.215L365.23 73.3482L361.377 67.0944H362.323L364.354 70.4867C364.884 71.3175 365.277 71.9636 365.669 72.6559C366.061 71.9175 366.454 71.3405 367.007 70.4867L369.13 67.0944H370.169L366.13 73.2559L370.215 79.7406H369.246Z" fill="#231F20"/>
<path d="M386.554 79.3024C385.475 79.761 384.31 79.9814 383.139 79.9485C382.306 79.9765 381.477 79.8253 380.708 79.5052C379.939 79.185 379.248 78.7034 378.681 78.0929C378.115 77.4824 377.686 76.7573 377.423 75.9666C377.161 75.176 377.072 74.3382 377.162 73.51C377.103 72.6438 377.227 71.7749 377.526 70.9598C377.825 70.1446 378.292 69.4016 378.897 68.779C379.502 68.1565 380.232 67.6683 381.038 67.3463C381.845 67.0243 382.71 66.8756 383.577 66.91C384.584 66.8635 385.588 67.0532 386.508 67.4639L386.208 68.2023C385.378 67.8412 384.482 67.6603 383.577 67.6715C382.815 67.6294 382.052 67.7544 381.343 68.0379C380.634 68.3214 379.996 68.7565 379.472 69.3127C378.949 69.8689 378.554 70.5328 378.314 71.2578C378.074 71.9829 377.996 72.7516 378.085 73.51C378 74.2455 378.076 74.9906 378.309 75.6934C378.542 76.3961 378.926 77.0393 379.434 77.578C379.942 78.1166 380.561 78.5377 381.249 78.8117C381.937 79.0856 382.676 79.2059 383.416 79.1639C384.401 79.1884 385.379 78.9912 386.277 78.587L386.554 79.3024Z" fill="#231F20"/>
<path d="M400.63 73.4636H395.577V79.0021H401.23V79.7406H394.63V67.0944H400.884V67.8559H395.53V72.7021H400.584L400.63 73.4636Z" fill="#231F20"/>
<path d="M409.423 67.0944H410.3V79.0021H415.954V79.7406H409.423V67.0944Z" fill="#231F20"/>
<path d="M423.823 67.0944H424.63V79.0021H430.261V79.7406H423.73L423.823 67.0944Z" fill="#231F20"/>
<path d="M444.177 73.4636H439.123V79.0021H444.777V79.7406H438.223V67.0944H444.477V67.8559H439.123V72.7021H444.177V73.4636Z" fill="#231F20"/>
<path d="M452.969 79.7406V67.0944H453.823L458.761 74.5713C459.776 76.1636 460.515 77.3406 461.069 78.5636C460.953 76.8559 460.93 75.4021 460.93 73.4175V67.1174H461.807V79.7637H460.953L456.13 72.4021C455.231 71.0928 454.414 69.7286 453.684 68.3175C453.684 69.8867 453.684 71.2482 453.684 73.3482V79.7406H452.969Z" fill="#231F20"/>
<path d="M479.53 79.3021C478.452 79.7607 477.287 79.9811 476.115 79.9483C475.282 79.9758 474.452 79.8245 473.682 79.5046C472.912 79.1846 472.219 78.7034 471.651 78.0934C471.082 77.4834 470.651 76.7587 470.386 75.968C470.121 75.1774 470.029 74.3392 470.115 73.5098C470.056 72.6436 470.18 71.7746 470.479 70.9595C470.778 70.1444 471.245 69.4014 471.851 68.7788C472.456 68.1562 473.185 67.6681 473.991 67.346C474.798 67.024 475.663 66.8754 476.53 66.9098C477.537 66.8607 478.542 67.0505 479.461 67.4636L479.184 68.2021C478.355 67.841 477.458 67.6601 476.553 67.6713C475.791 67.6291 475.029 67.7542 474.319 68.0377C473.61 68.3212 472.972 68.7563 472.449 69.3125C471.925 69.8687 471.53 70.5325 471.29 71.2576C471.051 71.9826 470.972 72.7513 471.061 73.5098C470.976 74.2452 471.052 74.9904 471.285 75.6931C471.518 76.3958 471.902 77.0391 472.41 77.5777C472.918 78.1164 473.538 78.5375 474.226 78.8114C474.913 79.0854 475.653 79.2056 476.392 79.1637C477.377 79.1882 478.355 78.991 479.253 78.5868L479.53 79.3021Z" fill="#231F20"/>
<path d="M493.584 73.4636H488.53V79.0021H494.184V79.7406H487.63V67.0944H493.861V67.8559H488.507V72.7021H493.561L493.584 73.4636Z" fill="#231F20"/>
</svg>
