<svg width="20" height="20" viewBox="0 0 20 20" fill="none" xmlns="http://www.w3.org/2000/svg">
<g clip-path="url(#clip0_786_28)">
<path d="M17.1082 8.39537C17.1322 5.57562 14.7306 2.99065 11.7546 2.6332C11.6954 2.62618 11.631 2.61549 11.5627 2.60419C11.4154 2.57978 11.263 2.55469 11.1093 2.55469C10.4994 2.55469 10.3363 2.98313 10.2934 3.23866C10.2516 3.48711 10.2915 3.69574 10.4115 3.85904C10.6135 4.13369 10.9689 4.18245 11.2544 4.22152C11.338 4.23307 11.417 4.24382 11.4831 4.25866C14.1569 4.85612 15.0572 5.79543 15.4972 8.44649C15.5079 8.51127 15.5128 8.59108 15.5179 8.67574C15.5371 8.99264 15.5771 9.65196 16.2859 9.65196H16.286C16.345 9.65196 16.4084 9.64686 16.4744 9.6368C17.1345 9.53649 17.1138 8.93382 17.1039 8.64425C17.1011 8.5627 17.0984 8.48556 17.1053 8.43425C17.1072 8.42133 17.1081 8.40835 17.1082 8.39537Z" fill="white"/>
<path d="M10.9361 1.59553C11.0153 1.60124 11.0903 1.60671 11.1527 1.61627C15.5433 2.29149 17.5625 4.37174 18.1221 8.79671C18.1316 8.87192 18.1331 8.96366 18.1346 9.06081C18.1402 9.40652 18.1517 10.1257 18.9241 10.1406L18.9481 10.1409C19.1903 10.1409 19.383 10.0678 19.5208 9.9236C19.7612 9.67211 19.7444 9.29851 19.7309 8.99826C19.7276 8.92459 19.7244 8.85522 19.7253 8.79447C19.7811 4.26888 15.8637 0.165093 11.3422 0.0124845C11.3234 0.0118634 11.3055 0.0128571 11.2874 0.0154037C11.2785 0.0167081 11.2621 0.018323 11.2339 0.018323C11.1888 0.018323 11.1333 0.0144099 11.0745 0.0104348C11.0034 0.00559006 10.9228 0 10.841 0C10.121 0 9.98408 0.511801 9.96656 0.816894C9.92619 1.52199 10.6083 1.57161 10.9361 1.59553Z" fill="white"/>
<path d="M17.9102 14.5125C17.8169 14.4412 17.7204 14.3674 17.63 14.2947C17.1506 13.9089 16.6406 13.5533 16.1474 13.2094C16.045 13.1381 15.9427 13.0667 15.8407 12.9951C15.2089 12.5514 14.6409 12.3357 14.1042 12.3357C13.3814 12.3357 12.7512 12.7351 12.2311 13.5226C12.0007 13.8717 11.7211 14.0415 11.3766 14.0415C11.1728 14.0415 10.9414 13.9833 10.6886 13.8686C8.6493 12.9438 7.19309 11.526 6.36036 9.65434C5.95781 8.74974 6.08831 8.15844 6.79676 7.6772C7.19906 7.40415 7.94788 6.89583 7.89483 5.92241C7.83477 4.81701 5.39576 1.49098 4.36812 1.11322C3.93303 0.95322 3.47589 0.95173 3.00694 1.10949C1.82558 1.50664 0.977814 2.20409 0.555081 3.12633C0.146572 4.01744 0.165019 5.06378 0.608435 6.15223C1.8903 9.29918 3.69253 12.0429 5.96527 14.3071C8.18986 16.5235 10.9241 18.339 14.0919 19.703C14.3774 19.8259 14.6769 19.8929 14.8956 19.9418C14.9702 19.9586 15.0345 19.9729 15.0814 19.9857C15.1072 19.9927 15.1338 19.9965 15.1604 19.9968L15.1855 19.9969C15.1855 19.9969 15.1855 19.9969 15.1856 19.9969C16.6755 19.9969 18.4645 18.6354 19.014 17.0832C19.4953 15.7241 18.6164 15.0523 17.9102 14.5125Z" fill="white"/>
<path d="M11.597 5.18804C11.3419 5.1945 10.8111 5.20767 10.6248 5.74835C10.5377 6.00102 10.5481 6.2204 10.6559 6.4004C10.814 6.6645 11.117 6.74543 11.3926 6.78984C12.392 6.95022 12.9053 7.50289 13.008 8.52897C13.0557 9.00742 13.3778 9.34152 13.7915 9.34152C13.8221 9.34152 13.8534 9.33972 13.8845 9.33593C14.382 9.27674 14.6232 8.91121 14.6014 8.2496C14.6093 7.5591 14.248 6.77519 13.6334 6.15078C13.0167 5.52444 12.2732 5.17171 11.597 5.18804Z" fill="white"/>
</g>
<defs>
<clipPath id="clip0_786_28">
<rect width="20" height="20" fill="white"/>
</clipPath>
</defs>
</svg>
