<svg width="50" height="70" viewBox="0 0 50 70" fill="none" xmlns="http://www.w3.org/2000/svg">
<path d="M25.0196 61.8282C24.4021 61.8282 23.8211 61.4473 23.5965 60.8344C21.5362 55.2193 17.7812 50.7209 13.8061 45.9584C10.2301 41.6739 6.53278 37.2453 4.19176 31.9336C3.85343 31.1659 4.20239 30.2708 4.96856 29.934C5.73929 29.5956 6.63291 29.9446 6.96821 30.7107C9.13626 35.6295 12.5363 39.7031 16.135 44.0149C20.1009 48.7683 24.2019 53.6809 26.4443 59.7891C26.7325 60.5765 26.3305 61.4489 25.5431 61.7356C25.3686 61.7978 25.1926 61.8282 25.0196 61.8282Z" fill="white"/>
<path d="M25.0179 61.829C24.8449 61.829 24.669 61.7987 24.4945 61.735C23.7071 61.4482 23.305 60.5743 23.5933 59.7884C25.8357 53.6802 29.9366 48.7661 33.9025 44.0143C37.5013 39.7024 40.9013 35.6303 43.0693 30.7101C43.4077 29.9439 44.2998 29.5965 45.069 29.9333C45.8352 30.2716 46.1826 31.1668 45.8458 31.9329C43.5048 37.2446 39.8089 41.6733 36.2314 45.9578C32.2564 50.7202 28.5014 55.2187 26.441 60.8338C26.2165 61.4482 25.6354 61.829 25.0179 61.829Z" fill="white"/>
<path d="M25.0203 34.8999C18.4403 34.8999 12.8828 29.3425 12.8828 22.7625C12.8828 16.1824 18.4403 10.625 25.0203 10.625C31.6003 10.625 37.1577 16.1824 37.1577 22.7625C37.1577 29.3425 31.6003 34.8999 25.0203 34.8999ZM25.0203 13.6594C20.0864 13.6594 15.9172 17.8286 15.9172 22.7625C15.9172 27.6963 20.0864 31.8656 25.0203 31.8656C29.9541 31.8656 34.1234 27.6963 34.1234 22.7625C34.1234 17.8286 29.9541 13.6594 25.0203 13.6594Z" fill="white"/>
<path d="M44.458 32.8348C44.2547 32.8348 44.0468 32.7939 43.8481 32.7059C43.0819 32.3676 42.7345 31.4724 43.0713 30.7062C45.5989 24.9637 45.1878 18.4732 41.9395 12.8976C38.6912 7.32342 33.249 3.76412 27.0058 3.13145C20.8931 2.51396 14.7349 4.83373 10.552 9.34583C5.28282 15.0277 3.84302 23.6104 6.9669 30.7062C7.30523 31.4739 6.95628 32.3691 6.1901 32.7059C5.41482 33.0457 4.52575 32.6937 4.19045 31.9291C0.585629 23.7424 2.24846 13.8367 8.32781 7.28246C13.1555 2.07701 20.2604 -0.591715 27.3123 0.110741C34.5341 0.842023 40.8198 4.94752 44.5612 11.3682C48.304 17.7905 48.7729 25.2853 45.8492 31.9291C45.5974 32.498 45.0421 32.8348 44.458 32.8348Z" fill="white"/>
<path d="M25.0866 69.7785C19.8751 69.7785 13.5697 69.3947 7.81956 67.3404C5.55441 66.5302 -1.33663 64.0648 0.229102 59.0035C0.664533 57.597 1.78725 56.3272 3.5669 55.2318C6.37672 53.5022 9.50364 52.6965 12.2133 52.0791C13.025 51.8879 13.8428 52.4007 14.0294 53.22C14.216 54.0362 13.7047 54.8494 12.8885 55.036C9.81921 55.737 7.32951 56.4774 5.15691 57.8155C4.03723 58.5043 3.33477 59.2265 3.1254 59.9016C2.65659 61.4173 4.57886 62.9603 8.84063 64.485C14.8411 66.6303 21.6623 66.8094 26.9179 66.7305C34.0972 66.6212 39.6227 65.5319 43.8086 63.4018C44.9784 62.807 47.6107 61.2459 46.7808 59.6119C45.4062 56.9052 40.7166 55.8462 37.6125 55.1438L37.1421 55.0376C36.3259 54.8525 35.8146 54.0392 36.0012 53.2215C36.1863 52.4068 36.9904 51.8849 37.8173 52.0806L38.28 52.1853C41.938 53.0106 47.4666 54.2608 49.4859 58.2388C50.9197 61.0653 49.313 64.0071 45.1832 66.1084C40.577 68.4525 34.6176 69.6495 26.9649 69.7664C26.3595 69.7724 25.7314 69.7785 25.0866 69.7785Z" fill="white"/>
</svg>
