<svg width="20" height="20" viewBox="0 0 20 20" fill="black" xmlns="http://www.w3.org/2000/svg">
<path d="M12.9582 10.8281L11.2832 12.5088C10.6039 13.1905 9.40875 13.2052 8.7148 12.5088L7.03969 10.8281L1.02344 16.8639C1.24738 16.9675 1.4943 17.0293 1.7568 17.0293H18.2412C18.5037 17.0293 18.7505 16.9675 18.9744 16.8639L12.9582 10.8281Z" fill="white"/>
<path d="M18.2411 2.96875H1.75672C1.49422 2.96875 1.2473 3.03055 1.02344 3.1341L7.45223 9.58422C7.45266 9.58465 7.45316 9.58473 7.45359 9.58516C7.45402 9.58559 7.4541 9.58617 7.4541 9.58617L9.54445 11.6834C9.76648 11.9055 10.2314 11.9055 10.4534 11.6834L12.5434 9.58652C12.5434 9.58652 12.5439 9.58559 12.5443 9.58516C12.5443 9.58516 12.5452 9.58465 12.5457 9.58422L18.9743 3.13406C18.7504 3.03047 18.5036 2.96875 18.2411 2.96875Z" fill="white"/>
<path d="M0.186953 3.95312C0.0710937 4.18742 0 4.4475 0 4.72609V15.273C0 15.5516 0.0710156 15.8116 0.186914 16.0459L6.21359 9.99973L0.186953 3.95312Z" fill="white"/>
<path d="M19.8118 3.95312L13.7852 9.99981L19.8118 16.0461C19.9276 15.8118 19.9987 15.5517 19.9987 15.273V4.72617C19.9987 4.4475 19.9276 4.18742 19.8118 3.95312Z" fill="white"/>
</svg>
